<svg width="98" height="107" viewBox="0 0 98 107" fill="none" xmlns="http://www.w3.org/2000/svg">
<rect x="5.3313" y="85.2404" width="23" height="14" rx="5" transform="rotate(-6 5.3313 85.2404)" fill="#E5B66A"/>
<rect x="5.3313" y="85.2404" width="23" height="14" rx="5" transform="rotate(-6 5.3313 85.2404)" fill="#EAC282"/>
<rect x="19" y="39" width="60" height="60" rx="5" fill="#EAC282"/>
<path fill-rule="evenodd" clip-rule="evenodd" d="M9.49016 56.4481C9.22685 53.5216 11.5317 51 14.47 51H32.3541C35.3553 51 37.6803 53.6253 37.3175 56.6044L32.1707 98.8668C31.8439 101.55 29.4431 103.488 26.7509 103.242L17.7418 102.416C15.3379 102.195 13.4346 100.289 13.2183 97.8845L9.49016 56.4481Z" fill="#F8DBAD"/>
<path fill-rule="evenodd" clip-rule="evenodd" d="M62.4902 56.4481C62.2268 53.5216 64.5317 51 67.47 51H85.3541C88.3553 51 90.6803 53.6253 90.3175 56.6044L85.1707 98.8668C84.8439 101.55 82.4431 103.488 79.7509 103.242L70.7418 102.416C68.3379 102.195 66.4346 100.289 66.2183 97.8845L62.4902 56.4481Z" fill="#F8DBAD"/>
<path fill-rule="evenodd" clip-rule="evenodd" d="M12.693 61.2389C5.58449 55.1821 5.1525 44.35 11.7561 37.7464L37.6863 11.8162C43.9347 5.56784 54.0653 5.56784 60.3137 11.8162L86.1208 37.6234C92.7692 44.2717 92.2792 55.1922 85.0622 61.2185L58.8592 83.098C52.8753 88.0946 44.1613 88.0513 38.2274 82.9953L12.693 61.2389Z" fill="#FCE9CB"/>
<rect x="7.43842" y="83.4478" width="28" height="14" rx="5" transform="rotate(21 7.43842 83.4478)" fill="#F8DBAD"/>
<rect width="28" height="14" rx="5" transform="matrix(-0.961262 0.275637 0.275637 0.961262 91.5282 85.4122)" fill="#F8DBAD"/>
</svg>
