<svg width="141" height="108" viewBox="0 0 141 108" fill="none" xmlns="http://www.w3.org/2000/svg">
<path fill-rule="evenodd" clip-rule="evenodd" d="M97.7898 7.83141C90.4806 2.95107 81.8878 0.138458 72.6934 0.138458C62.8496 0.138458 53.6953 3.36246 46.0676 8.89633C43.3511 8.20983 40.3543 8.81897 38.0806 10.7957L5.05631 39.5064C1.36278 42.7175 0.975679 48.3123 4.18697 52.0069L12.8014 61.9178C16.0109 65.6103 21.6085 66.0058 25.2999 62.7966L25.3787 62.7281C29.6465 87.0172 49.2075 105.369 72.6934 105.369C96.4556 105.369 116.2 86.583 120.152 61.8686C123.636 64.6781 128.74 64.4617 131.972 61.2296L138.395 54.8056C141.854 51.3468 141.854 45.7332 138.393 42.2712L106.275 10.1495C103.972 7.84678 100.725 7.07528 97.7898 7.83141Z" fill="#E5B66A"/>
<path fill-rule="evenodd" clip-rule="evenodd" d="M11.0481 53.5876L10.9167 53.3297C10.2859 53.425 9.62632 53.3999 8.96876 53.236C6.2979 52.5701 4.67264 49.8648 5.33863 47.1937C5.55562 46.3234 5.98905 45.5641 6.56723 44.9589C4.79828 43.8418 3.85995 41.6788 4.39379 39.5377C5.05979 36.8665 7.76484 35.241 10.4357 35.9069C10.7423 35.9833 11.0351 36.0866 11.3122 36.2137L12.8363 35.437C12.8417 35.414 12.8473 35.391 12.853 35.368C13.519 32.6968 16.2241 31.0713 18.8949 31.7372C19.1472 31.8001 19.3901 31.8812 19.6227 31.9787L20.2228 31.6729C20.2168 31.2511 20.2647 30.8216 20.3715 30.393C21.0375 27.7218 23.7426 26.0962 26.4135 26.7622C27.0601 26.9234 27.6455 27.2042 28.1519 27.5751C28.1246 27.0876 28.1691 26.5879 28.2934 26.0893C28.9594 23.4181 31.6645 21.7926 34.3353 22.4585C34.7616 22.5648 35.1612 22.723 35.5291 22.9247C35.5238 22.5051 35.5717 22.0779 35.678 21.6517C36.344 18.9805 39.049 17.3549 41.7199 18.0209C42.3123 18.1686 42.8533 18.4166 43.3292 18.7423C43.3495 18.458 43.3945 18.1715 43.4659 17.8854C44.1319 15.2142 46.8369 13.5887 49.5078 14.2546C52.1786 14.9205 53.8039 17.6257 53.1379 20.2969C52.4719 22.968 49.7669 24.5936 47.096 23.9277C46.5036 23.78 45.9626 23.5319 45.4867 23.2062C45.4664 23.4906 45.4213 23.7771 45.35 24.0632C44.9512 25.6625 43.8215 26.887 42.4057 27.4692L47.0947 36.6731C47.9274 38.3075 47.2771 40.3078 45.6402 41.142L20.8141 53.7932C20.8061 53.8288 20.7976 53.8643 20.7887 53.8998C20.1228 56.571 17.4177 58.1966 14.7468 57.5306C12.7862 57.0418 11.3891 55.4541 11.0481 53.5876Z" fill="#EAC282"/>
<path fill-rule="evenodd" clip-rule="evenodd" d="M122.053 56.3703L95.9332 35.961C94.4856 34.8298 94.2289 32.7422 95.3581 31.2967L101.796 23.056C99.3107 23.017 97.1896 21.1268 96.9233 18.5926C96.6355 15.8548 98.6215 13.402 101.359 13.1143C104.097 12.8266 106.549 14.8128 106.837 17.5506C106.91 18.2434 106.837 18.9179 106.643 19.5437C106.713 19.5534 106.783 19.5654 106.852 19.5796C107.399 19.29 108.01 19.0981 108.663 19.0294C111.4 18.7417 113.853 20.7279 114.141 23.4658C114.189 23.923 114.173 24.3722 114.102 24.8048L115.123 25.6026C115.238 25.5822 115.355 25.5657 115.474 25.5532C118.211 25.2655 120.664 27.2517 120.951 29.9896C120.958 30.0496 120.963 30.1096 120.967 30.1693L122.649 31.4835C122.692 31.4779 122.734 31.4729 122.777 31.4683C125.5 31.1822 127.941 33.1454 128.25 35.8602L128.93 36.3911C131.561 36.1492 133.914 38.0035 134.311 40.5958C134.965 41.1072 135.365 41.7591 135.536 42.4612C136.369 43.2499 136.936 44.3288 137.066 45.5597C137.353 48.2975 135.367 50.7503 132.63 51.038C132.444 51.0576 132.259 51.0666 132.076 51.0656C132.367 53.8337 130.381 56.2864 127.643 56.5742C127.08 56.6334 126.529 56.5963 126.006 56.4762C124.841 57.2934 123.234 57.2928 122.053 56.3703Z" fill="#EAC282"/>
<path fill-rule="evenodd" clip-rule="evenodd" d="M72.6934 89.8615C98.6904 89.8615 119.765 70.7682 119.765 47.2154C119.765 23.6626 98.6904 4.56923 72.6934 4.56923C46.6964 4.56923 25.6217 23.6626 25.6217 47.2154C25.6217 70.7682 46.6964 89.8615 72.6934 89.8615Z" fill="#EAC282"/>
<path fill-rule="evenodd" clip-rule="evenodd" d="M107.548 63.2501C107.571 63.4406 107.582 63.6343 107.582 63.8308C107.582 66.5837 105.35 68.8154 102.598 68.8154C101.439 68.8154 100.372 68.4198 99.5258 67.7562C92.619 72.8735 83.2669 76.0154 72.9703 76.0154C61.8318 76.0154 51.7983 72.3386 44.7703 66.4618C44.0276 66.9015 43.1609 67.1538 42.2353 67.1538C39.4826 67.1538 37.2512 64.9221 37.2512 62.1692C37.2512 61.584 37.352 61.0223 37.5373 60.5006C34.9091 60.3615 32.8209 58.1862 32.8209 55.5231C32.8209 54.3647 33.216 53.2987 33.8787 52.4523C31.969 51.7542 30.6058 49.9209 30.6058 47.7692C30.6058 45.4522 32.1866 43.5044 34.3284 42.9457C33.0794 42.0398 32.2671 40.5686 32.2671 38.9077C32.2671 36.2432 34.3575 34.067 36.9875 33.9299C36.4546 33.1365 36.1436 32.1815 36.1436 31.1538C36.1436 28.4009 38.3751 26.1692 41.1277 26.1692C41.5252 26.1692 41.9118 26.2158 42.2824 26.3037C42.2513 26.0787 42.2353 25.8489 42.2353 25.6154C42.2353 22.8625 44.4667 20.6308 47.2193 20.6308C48.2475 20.6308 49.203 20.9421 49.9966 21.4758C49.9911 21.3794 49.9882 21.2823 49.9882 21.1846C49.9882 18.4317 52.2197 16.2 54.9723 16.2C56.5401 16.2 57.9389 16.924 58.8525 18.0559C58.85 17.9914 58.8488 17.9266 58.8488 17.8615C58.8488 15.1086 61.0802 12.8769 63.8329 12.8769C65.4936 12.8769 66.9647 13.6893 67.8704 14.9384C68.429 12.7963 70.3766 11.2154 72.6934 11.2154C74.427 11.2154 75.9539 12.1006 76.8468 13.4437C77.7397 12.1006 79.2666 11.2154 81.0002 11.2154C83.2066 11.2154 85.0782 12.6493 85.734 14.6361C86.4611 14.2215 87.3026 13.9846 88.1994 13.9846C90.9401 13.9846 93.1642 16.1971 93.1833 18.9336C93.8507 18.6019 94.6029 18.4154 95.3986 18.4154C98.1512 18.4154 100.383 20.6471 100.383 23.4C100.383 23.6335 100.367 23.8633 100.336 24.0883C100.706 24.0004 101.093 23.9538 101.49 23.9538C104.243 23.9538 106.474 26.1855 106.474 28.9385C106.474 29.5237 106.373 30.0854 106.188 30.6071C108.816 30.7462 110.905 32.9215 110.905 35.5846C110.905 36.4276 110.695 37.2218 110.326 37.9179C112.558 38.4124 114.227 40.4035 114.227 42.7846C114.227 44.7136 113.132 46.3867 111.529 47.2154C113.132 48.0441 114.227 49.7171 114.227 51.6461C114.227 53.5863 113.119 55.2675 111.501 56.0911C111.828 56.755 112.012 57.5022 112.012 58.2923C112.012 60.8695 110.057 62.9899 107.548 63.2501Z" fill="#F6CF91"/>
<path fill-rule="evenodd" clip-rule="evenodd" d="M79.4856 52.838C79.932 50.4829 81.9244 48.7069 84.3147 48.7069C86.7051 48.7069 88.6975 50.4829 89.1438 52.838C89.2051 52.5146 89.2373 52.1802 89.2373 51.838C89.2373 49.0042 87.0334 46.7069 84.3147 46.7069C81.5961 46.7069 79.3922 49.0042 79.3922 51.838C79.3922 52.1802 79.4243 52.5145 79.4856 52.838Z" fill="#E5B66A"/>
<path fill-rule="evenodd" clip-rule="evenodd" d="M56.4856 52.838C56.932 50.4829 58.9244 48.7069 61.3147 48.7069C63.7051 48.7069 65.6975 50.4829 66.1438 52.838C66.2051 52.5146 66.2373 52.1802 66.2373 51.838C66.2373 49.0042 64.0334 46.7069 61.3147 46.7069C58.5961 46.7069 56.3922 49.0042 56.3922 51.838C56.3922 52.1802 56.4243 52.5145 56.4856 52.838Z" fill="#E5B66A"/>
<path fill-rule="evenodd" clip-rule="evenodd" d="M72.9703 107.585C79.546 107.585 84.8767 104.609 84.8767 100.938C84.8767 97.2679 79.546 94.2923 72.9703 94.2923C66.3946 94.2923 61.064 97.2679 61.064 100.938C61.064 104.609 66.3946 107.585 72.9703 107.585Z" fill="#F0C784"/>
<path fill-rule="evenodd" clip-rule="evenodd" d="M42.8381 65.5068C35.3559 69.0603 30.3289 75.6604 30.3289 83.2154C30.3289 94.533 41.61 103.708 55.5261 103.708C62.1593 103.708 68.1939 101.623 72.6934 98.2156C77.1929 101.623 83.2275 103.708 89.8607 103.708C103.777 103.708 115.058 94.533 115.058 83.2154C115.058 73.9776 107.542 66.1674 97.212 63.6089C91.1171 61.0341 82.0224 59.4 71.8627 59.4C59.3886 59.4 48.52 61.8634 42.8381 65.5068Z" fill="#F8DBAD"/>
<path fill-rule="evenodd" clip-rule="evenodd" d="M49.5544 68.2705C43.686 71.0575 39.7432 76.234 39.7432 82.1595C39.7432 91.0361 48.5912 98.2319 59.5057 98.2319C64.7083 98.2319 69.4413 96.597 72.9703 93.9244C76.4994 96.597 81.2324 98.2319 86.4349 98.2319C97.3494 98.2319 106.197 91.0361 106.197 82.1595C106.197 74.9142 100.303 68.7886 92.2006 66.7819C87.4203 64.7625 80.2872 63.4808 72.3188 63.4808C62.5352 63.4808 54.0108 65.4129 49.5544 68.2705Z" fill="#FCE9CB"/>
<path fill-rule="evenodd" clip-rule="evenodd" d="M47.773 87.6766C47.7731 87.6664 47.7731 87.6563 47.7731 87.6462C47.7731 86.0878 47.0581 84.6965 45.9383 83.7825C46.7346 82.8991 47.2193 81.7292 47.2193 80.4462C47.2193 80.1747 47.1976 79.9083 47.1559 79.6486C48.2421 78.9451 49.0372 77.8304 49.3208 76.5249C49.5392 76.5541 49.7619 76.5692 49.9883 76.5692C52.4753 76.5692 54.5369 74.7474 54.9115 72.3654C55.7154 72.9208 56.6903 73.2462 57.7413 73.2462C59.7348 73.2462 61.455 72.0756 62.2521 70.3842C63.1663 71.4576 64.5277 72.1385 66.048 72.1385C67.9064 72.1385 69.5272 71.1213 70.3842 69.6133C71.2945 70.8112 72.7343 71.5846 74.3548 71.5846C75.9753 71.5846 77.4151 70.8112 78.3254 69.6133C79.1824 71.1213 80.8032 72.1385 82.6616 72.1385C83.9954 72.1385 85.2069 71.6144 86.1014 70.761C86.9642 72.247 88.5727 73.2462 90.4146 73.2462C90.8757 73.2462 91.3222 73.1835 91.746 73.0663C92.3769 75.0957 94.2695 76.5692 96.5062 76.5692C96.5163 76.5692 96.5265 76.5692 96.5366 76.5691C96.6586 77.6734 97.1413 78.6689 97.8643 79.4353C97.7017 79.9274 97.6138 80.4534 97.6138 81C97.6138 81.9079 97.8565 82.7591 98.2805 83.4923C97.8565 84.2255 97.6138 85.0767 97.6138 85.9846C97.6138 86.2136 97.6292 86.4391 97.6591 86.6599C97.0012 87.2346 96.4957 87.9795 96.2112 88.8258C94.7128 89.083 93.4429 90.0091 92.72 91.2858C92.1751 91.0812 91.5848 90.9692 90.9684 90.9692C89.6854 90.9692 88.5157 91.454 87.6324 92.2504C86.7184 91.1305 85.3273 90.4154 83.7691 90.4154C83.1527 90.4154 82.5624 90.5273 82.0175 90.7319L72.8753 94.5236C73.4602 96.6262 75.3887 98.1692 77.6775 98.1692C78.2939 98.1692 78.8842 98.0573 79.4292 97.8527C80.2852 99.3644 81.908 100.385 83.7691 100.385C85.0521 100.385 86.2218 99.8998 87.1051 99.1035C88.0191 100.223 89.4102 100.938 90.9684 100.938C92.8295 100.938 94.4523 99.9183 95.3083 98.4065C95.8533 98.6112 96.4436 98.7231 97.06 98.7231C99.2569 98.7231 101.122 97.3015 101.785 95.328C104.134 94.9251 105.921 92.8789 105.921 90.4154C105.921 90.1864 105.905 89.9609 105.875 89.7401C106.921 88.8264 107.582 87.4827 107.582 85.9846C107.582 85.438 107.494 84.912 107.331 84.4199C108.173 83.5273 108.689 82.3239 108.689 81C108.689 79.2445 107.782 77.701 106.411 76.813C106.453 76.5533 106.474 76.2869 106.474 76.0154C106.474 73.2625 104.243 71.0308 101.49 71.0308C101.48 71.0308 101.47 71.0308 101.46 71.0309C101.184 68.5385 99.0717 66.6 96.5062 66.6C96.0451 66.6 95.5986 66.6626 95.1747 66.7799V66.7798C94.5439 64.7505 92.6513 63.2769 90.4146 63.2769C89.0807 63.2769 87.8692 63.801 86.9747 64.6544C86.112 63.1684 84.5034 62.1692 82.6616 62.1692C81.0411 62.1692 79.6012 62.9427 78.691 64.1406C77.834 62.6326 76.2132 61.6154 74.3548 61.6154C72.4965 61.6154 70.8756 62.6326 70.0187 64.1406C69.1084 62.9427 67.6685 62.1692 66.048 62.1692C64.0545 62.1692 62.3343 63.3398 61.5372 65.0312C60.623 63.9577 59.2616 63.2769 57.7413 63.2769C55.2542 63.2769 53.1927 65.0987 52.818 67.4807C52.0142 66.9253 51.0392 66.6 49.9883 66.6C47.6006 66.6 45.605 68.2792 45.1179 70.5212C44.8995 70.492 44.6767 70.4769 44.4504 70.4769C41.6978 70.4769 39.4664 72.7086 39.4664 75.4615C39.4664 75.733 39.4881 75.9994 39.5298 76.2591C38.1586 77.1472 37.2512 78.6907 37.2512 80.4462C37.2512 82.0045 37.9662 83.3958 39.086 84.3098C38.2897 85.1933 37.805 86.3631 37.805 87.6462C37.805 90.2119 39.7433 92.3249 42.2354 92.6004C42.2353 92.6105 42.2353 92.6206 42.2353 92.6308C42.2353 95.3837 44.4667 97.6154 47.2193 97.6154C48.1162 97.6154 48.9577 97.3785 49.6847 96.9639C50.3406 98.9507 52.2121 100.385 54.4186 100.385C55.9767 100.385 57.3678 99.6695 58.2818 98.5496C59.1651 99.346 60.3348 99.8308 61.6178 99.8308C63.5576 99.8308 65.2387 98.7224 66.0622 97.1043C66.726 97.4315 67.4731 97.6154 68.2632 97.6154C70.3458 97.6154 72.1301 96.3378 72.8753 94.5236C72.7568 94.0975 72.6935 93.6485 72.6935 93.1846C72.6935 92.8787 72.721 92.5793 72.7738 92.2886C73.2472 93.3008 73.115 93.94 72.8753 94.5236L73.0654 91.2918C72.4805 89.1891 70.552 87.6462 68.2632 87.6462C66.3233 87.6462 64.6423 88.7545 63.8187 90.3726C63.1549 90.0454 62.4078 89.8615 61.6178 89.8615C60.0596 89.8615 58.6685 90.5766 57.7545 91.6965C56.8712 90.9002 55.7015 90.4154 54.4186 90.4154C53.5217 90.4154 52.6802 90.6523 51.9532 91.0669C52.1156 91.5588 52.2034 92.0845 52.2034 92.6308C52.2034 94.1602 51.5147 95.5287 50.4305 96.4431C49.4345 93.544 50.4488 91.9249 51.9532 91.0669L47.773 87.6766Z" fill="#FCE9CB"/>
<path fill-rule="evenodd" clip-rule="evenodd" d="M80.3289 80.0919C81.8947 79.3501 82.8526 78.3552 82.8526 77.2615C82.8526 74.9674 78.6377 73.1077 73.4383 73.1077C68.2389 73.1077 64.0239 74.9674 64.0239 77.2615C64.0239 78.4679 65.1895 79.5542 67.0508 80.3131C67.0794 80.3067 67.1091 80.3005 67.1395 80.2941C67.3801 80.2435 67.6576 80.1851 67.6576 80.0308C67.6576 79.2661 68.5254 78.6462 69.5959 78.6462C70.6663 78.6462 71.5341 79.2661 71.5341 80.0308C71.5341 80.7955 70.6663 81.4154 69.5959 81.4154C69.029 81.4154 67.6029 80.978 67.0192 80.6349C66.8715 80.9725 66.7929 81.3269 66.7929 81.6923C66.7929 83.9864 69.8921 85.8462 73.7152 85.8462C77.5382 85.8462 80.6375 83.9864 80.6375 81.6923C80.6375 81.2077 80.4992 80.7426 80.245 80.3102C79.7208 80.6589 78.1852 81.1385 77.5917 81.1385C76.5212 81.1385 75.6534 80.5186 75.6534 79.7539C75.6534 78.9891 76.5212 78.3692 77.5917 78.3692C78.6621 78.3692 79.5299 78.9891 79.5299 79.7539C79.5299 79.9082 79.8075 79.9666 80.0481 80.0172C80.1604 80.0408 80.2646 80.0627 80.3289 80.0919Z" fill="#8B572A"/>
</svg>
