            <svg
                id="butter_head"
                width="143"
                height="112"
                viewBox="0 0 143 112"
                fill="none"
                xmlns="http://www.w3.org/2000/svg"
            >
                <g filter="url(#filter0_d)">
                    <path
                        fill-rule="evenodd"
                        clip-rule="evenodd"
                        d="M97.7898 7.83138C90.4806 2.95104 81.8878 0.138428 72.6934 0.138428C62.8496 0.138428 53.6953 3.36243 46.0676 8.89629C43.3511 8.2098 40.3543 8.81894 38.0806 10.7956L5.05631 39.5064C1.36278 42.7175 0.975679 48.3123 4.18697 52.0069L12.8014 61.9178C16.0109 65.6103 21.6085 66.0058 25.2999 62.7965L25.3787 62.7281C29.6465 87.0172 49.2075 105.369 72.6934 105.369C96.4556 105.369 116.2 86.5829 120.152 61.8686C123.636 64.6781 128.74 64.4617 131.972 61.2296L138.395 54.8056C141.854 51.3468 141.854 45.7331 138.393 42.2712L106.275 10.1495C103.972 7.84675 100.725 7.07525 97.7898 7.83138Z"
                        fill="#E5B66A"
                    />
                    <path
                        fill-rule="evenodd"
                        clip-rule="evenodd"
                        d="M16.0949 57.0227L15.905 56.8043C15.316 57.0493 14.6699 57.1846 13.9922 57.1846C11.2396 57.1846 9.00818 54.9529 9.00818 52.2C9.00818 51.3031 9.24505 50.4615 9.65964 49.7344C7.67299 49.0784 6.23926 47.2067 6.23926 45C6.23926 42.2471 8.4707 40.0154 11.2233 40.0154C11.5393 40.0154 11.8484 40.0448 12.148 40.101L13.439 38.9787C13.4386 38.9551 13.4385 38.9314 13.4385 38.9077C13.4385 36.1548 15.6699 33.9231 18.4225 33.9231C18.6825 33.9231 18.9379 33.943 19.1871 33.9814L19.6954 33.5395C19.5876 33.1316 19.5301 32.7033 19.5301 32.2615C19.5301 29.5086 21.7615 27.2769 24.5142 27.2769C25.1806 27.2769 25.8165 27.4077 26.3976 27.6451C26.2533 27.1787 26.1755 26.683 26.1755 26.1692C26.1755 23.4163 28.407 21.1846 31.1596 21.1846C31.5989 21.1846 32.0249 21.2414 32.4307 21.3482C32.324 20.9423 32.2671 20.5163 32.2671 20.0769C32.2671 17.324 34.4986 15.0923 37.2512 15.0923C37.8618 15.0923 38.4467 15.2021 38.9873 15.403C38.9382 15.1222 38.9126 14.8333 38.9126 14.5384C38.9126 11.7855 41.144 9.55383 43.8966 9.55383C46.6493 9.55383 48.8807 11.7855 48.8807 14.5384C48.8807 17.2914 46.6493 19.5231 43.8966 19.5231C43.2861 19.5231 42.7012 19.4133 42.1606 19.2123C42.2097 19.4932 42.2353 19.782 42.2353 20.0769C42.2353 21.7252 41.4353 23.1867 40.2025 24.0941L46.9788 31.8902C48.1821 33.2746 48.035 35.3729 46.6486 36.5782L25.6205 54.8596C25.6213 54.8961 25.6217 54.9326 25.6217 54.9692C25.6217 57.7221 23.3903 59.9538 20.6377 59.9538C18.617 59.9538 16.8773 58.7513 16.0949 57.0227Z"
                        fill="#EAC282"
                    />
                    <path
                        fill-rule="evenodd"
                        clip-rule="evenodd"
                        d="M119.764 56.9514L95.9212 33.9237C94.5997 32.6474 94.5626 30.5443 95.8368 29.2248L103.1 21.7022C100.633 21.4036 98.7213 19.3021 98.7213 16.7539C98.7213 14.001 100.953 11.7693 103.705 11.7693C106.458 11.7693 108.689 14.001 108.689 16.7539C108.689 17.4505 108.547 18.1137 108.289 18.7158C108.357 18.7328 108.425 18.752 108.493 18.7734C109.067 18.5425 109.694 18.4154 110.351 18.4154C113.103 18.4154 115.335 20.6471 115.335 23.4001C115.335 23.8598 115.273 24.305 115.156 24.7277L116.088 25.6278C116.205 25.6196 116.323 25.6154 116.442 25.6154C119.195 25.6154 121.426 27.8471 121.426 30.6001C121.426 30.6605 121.425 30.7206 121.423 30.7805L122.959 32.2632C123.002 32.2621 123.045 32.2616 123.088 32.2616C125.826 32.2616 128.048 34.4692 128.072 37.2015L128.692 37.8005C131.334 37.8349 133.48 39.925 133.604 42.5446C134.202 43.1217 134.531 43.8118 134.627 44.5278C135.374 45.3993 135.825 46.5316 135.825 47.7693C135.825 50.5222 133.593 52.7539 130.841 52.7539C130.654 52.7539 130.469 52.7436 130.287 52.7235C130.287 55.5068 128.056 57.7385 125.303 57.7385C124.737 57.7385 124.192 57.644 123.685 57.47C122.44 58.1609 120.842 57.9923 119.764 56.9514Z"
                        fill="#EAC282"
                    />
                    <path
                        fill-rule="evenodd"
                        clip-rule="evenodd"
                        d="M72.6934 89.8615C98.6904 89.8615 119.765 70.7682 119.765 47.2154C119.765 23.6625 98.6904 4.56921 72.6934 4.56921C46.6964 4.56921 25.6217 23.6625 25.6217 47.2154C25.6217 70.7682 46.6964 89.8615 72.6934 89.8615Z"
                        fill="#EAC282"
                    />
                    <path
                        fill-rule="evenodd"
                        clip-rule="evenodd"
                        d="M107.548 63.25C107.571 63.4405 107.582 63.6343 107.582 63.8307C107.582 66.5836 105.35 68.8153 102.598 68.8153C101.439 68.8153 100.372 68.4197 99.5258 67.7561C92.619 72.8735 83.2669 76.0153 72.9703 76.0153C61.8318 76.0153 51.7983 72.3386 44.7703 66.4617C44.0276 66.9014 43.1609 67.1538 42.2353 67.1538C39.4826 67.1538 37.2512 64.9221 37.2512 62.1692C37.2512 61.5839 37.352 61.0223 37.5373 60.5006C34.9091 60.3615 32.8209 58.1861 32.8209 55.523C32.8209 54.3647 33.216 53.2986 33.8787 52.4523C31.969 51.7541 30.6058 49.9209 30.6058 47.7692C30.6058 45.4521 32.1866 43.5043 34.3284 42.9456C33.0794 42.0398 32.2671 40.5686 32.2671 38.9076C32.2671 36.2432 34.3575 34.067 36.9875 33.9299C36.4546 33.1365 36.1436 32.1814 36.1436 31.1538C36.1436 28.4009 38.3751 26.1692 41.1277 26.1692C41.5252 26.1692 41.9118 26.2157 42.2824 26.3036C42.2513 26.0786 42.2353 25.8489 42.2353 25.6153C42.2353 22.8624 44.4667 20.6307 47.2193 20.6307C48.2475 20.6307 49.203 20.9421 49.9966 21.4757C49.9911 21.3794 49.9882 21.2823 49.9882 21.1846C49.9882 18.4316 52.2197 16.1999 54.9723 16.1999C56.5401 16.1999 57.9389 16.9239 58.8525 18.0559C58.85 17.9914 58.8488 17.9266 58.8488 17.8615C58.8488 15.1086 61.0802 12.8769 63.8329 12.8769C65.4936 12.8769 66.9647 13.6892 67.8704 14.9383C68.429 12.7963 70.3766 11.2153 72.6934 11.2153C74.427 11.2153 75.9539 12.1005 76.8468 13.4436C77.7397 12.1005 79.2666 11.2153 81.0002 11.2153C83.2066 11.2153 85.0782 12.6492 85.734 14.6361C86.4611 14.2215 87.3026 13.9846 88.1994 13.9846C90.9401 13.9846 93.1642 16.197 93.1833 18.9335C93.8507 18.6018 94.6029 18.4153 95.3986 18.4153C98.1512 18.4153 100.383 20.647 100.383 23.3999C100.383 23.6335 100.367 23.8633 100.336 24.0882C100.706 24.0003 101.093 23.9538 101.49 23.9538C104.243 23.9538 106.474 26.1855 106.474 28.9384C106.474 29.5236 106.373 30.0853 106.188 30.607C108.816 30.7461 110.905 32.9214 110.905 35.5846C110.905 36.4276 110.695 37.2217 110.326 37.9179C112.558 38.4124 114.227 40.4035 114.227 42.7846C114.227 44.7136 113.132 46.3867 111.529 47.2153C113.132 48.044 114.227 49.7171 114.227 51.6461C114.227 53.5862 113.119 55.2674 111.501 56.0911C111.828 56.7549 112.012 57.5021 112.012 58.2923C112.012 60.8694 110.057 62.9898 107.548 63.25Z"
                        fill="#F6CF91"
                    />
                    <path
                        fill-rule="evenodd"
                        clip-rule="evenodd"
                        d="M64.3505 52.1721C64.5614 52.0593 64.6344 51.7315 64.51 51.4332C64.51 51.4332 62.9467 47.6247 62.2695 46.5639C61.3629 45.144 59.6958 43.824 59.6958 43.824C59.5034 43.6637 59.1892 43.6687 58.9942 43.835L53.3015 48.6912C53.1065 48.8576 53.0878 49.1661 53.2666 49.3887L57.8421 55.0859C58.0179 55.3047 58.3294 55.3917 58.5421 55.278L64.3505 52.1721Z"
                        fill="#EAC282"
                    />
                    <path
                        fill-rule="evenodd"
                        clip-rule="evenodd"
                        d="M58.857 54.0946C56.0251 54.0946 53.7293 51.7017 53.7293 48.7498C53.7293 45.7979 56.0251 43.4049 58.857 43.4049C61.6889 43.4049 63.9846 45.7979 63.9846 48.7498C63.9846 51.7017 61.6889 54.0946 58.857 54.0946Z"
                        fill="white"
                    />
                    <path
                        fill-rule="evenodd"
                        clip-rule="evenodd"
                        d="M59.4723 54.0947C56.7537 54.0947 54.5498 51.7974 54.5498 48.9636C54.5498 46.1298 56.7537 43.8325 59.4723 43.8325C62.1909 43.8325 64.3948 46.1298 64.3948 48.9636C64.3948 51.7974 62.1909 54.0947 59.4723 54.0947Z"
                        fill="black"
                    />
                    <g filter="url(#filter1_d)">
                        <path
                            fill-rule="evenodd"
                            clip-rule="evenodd"
                            d="M60.6281 49.5175C61.6244 49.5175 62.432 48.6756 62.432 47.6372C62.432 46.5987 61.6244 45.7568 60.6281 45.7568C59.6319 45.7568 58.8242 46.5987 58.8242 47.6372C58.8242 48.6756 59.6319 49.5175 60.6281 49.5175Z"
                            fill="white"
                            fill-opacity="0.43"
                        />
                    </g>
                    <path
                        fill-rule="evenodd"
                        clip-rule="evenodd"
                        d="M78.8212 52.1721C78.6103 52.0593 78.5373 51.7315 78.6617 51.4332C78.6617 51.4332 80.2249 47.6247 80.9022 46.5639C81.8087 45.144 83.4759 43.824 83.4759 43.824C83.6683 43.6637 83.9825 43.6687 84.1775 43.835L89.8701 48.6912C90.0652 48.8576 90.0839 49.1661 89.9051 49.3887L85.3295 55.0859C85.1538 55.3047 84.8423 55.3917 84.6296 55.278L78.8212 52.1721Z"
                        fill="#EAC282"
                    />
                    <path
                        fill-rule="evenodd"
                        clip-rule="evenodd"
                        d="M84.3147 54.0946C87.1466 54.0946 89.4423 51.7017 89.4423 48.7498C89.4423 45.7979 87.1466 43.4049 84.3147 43.4049C81.4828 43.4049 79.1871 45.7979 79.1871 48.7498C79.1871 51.7017 81.4828 54.0946 84.3147 54.0946Z"
                        fill="white"
                    />
                    <path
                        fill-rule="evenodd"
                        clip-rule="evenodd"
                        d="M83.6994 54.0947C86.418 54.0947 88.6219 51.7974 88.6219 48.9636C88.6219 46.1298 86.418 43.8325 83.6994 43.8325C80.9808 43.8325 78.7769 46.1298 78.7769 48.9636C78.7769 51.7974 80.9808 54.0947 83.6994 54.0947Z"
                        fill="black"
                    />
                    <g filter="url(#filter2_d)">
                        <path
                            fill-rule="evenodd"
                            clip-rule="evenodd"
                            d="M82.5108 49.5175C83.5071 49.5175 84.3147 48.6756 84.3147 47.6372C84.3147 46.5987 83.5071 45.7568 82.5108 45.7568C81.5146 45.7568 80.7069 46.5987 80.7069 47.6372C80.7069 48.6756 81.5146 49.5175 82.5108 49.5175Z"
                            fill="white"
                            fill-opacity="0.43"
                        />
                    </g>
                    <path
                        fill-rule="evenodd"
                        clip-rule="evenodd"
                        d="M72.9703 107.585C79.546 107.585 84.8767 104.609 84.8767 100.939C84.8767 97.2679 79.546 94.2924 72.9703 94.2924C66.3946 94.2924 61.0639 97.2679 61.0639 100.939C61.0639 104.609 66.3946 107.585 72.9703 107.585Z"
                        fill="#F0C784"
                    />
                    <path
                        fill-rule="evenodd"
                        clip-rule="evenodd"
                        d="M42.8381 65.5069C35.356 69.0603 30.3289 75.6604 30.3289 83.2154C30.3289 94.533 41.6101 103.708 55.5261 103.708C62.1593 103.708 68.1939 101.623 72.6934 98.2156C77.193 101.623 83.2275 103.708 89.8608 103.708C103.777 103.708 115.058 94.533 115.058 83.2154C115.058 73.9776 107.542 66.1674 97.212 63.6089C91.1171 61.0341 82.0224 59.4 71.8628 59.4C59.3886 59.4 48.52 61.8634 42.8381 65.5069Z"
                        fill="#F8DBAD"
                    />
                    <path
                        fill-rule="evenodd"
                        clip-rule="evenodd"
                        d="M49.5544 68.2705C43.686 71.0575 39.7432 76.2341 39.7432 82.1596C39.7432 91.0361 48.5912 98.232 59.5057 98.232C64.7083 98.232 69.4413 96.597 72.9703 93.9244C76.4994 96.597 81.2324 98.232 86.4349 98.232C97.3494 98.232 106.197 91.0361 106.197 82.1596C106.197 74.9142 100.303 68.7886 92.2006 66.7819C87.4203 64.7625 80.2872 63.4808 72.3188 63.4808C62.5352 63.4808 54.0108 65.4129 49.5544 68.2705Z"
                        fill="#FCE9CB"
                    />
                    <path
                        fill-rule="evenodd"
                        clip-rule="evenodd"
                        d="M47.773 87.6765C47.7731 87.6664 47.7731 87.6563 47.7731 87.6461C47.7731 86.0878 47.0581 84.6965 45.9383 83.7825C46.7346 82.899 47.2193 81.7292 47.2193 80.4461C47.2193 80.1746 47.1976 79.9082 47.1559 79.6485C48.242 78.9451 49.0371 77.8304 49.3208 76.5249C49.5391 76.5541 49.7619 76.5692 49.9882 76.5692C52.4753 76.5692 54.5368 74.7474 54.9115 72.3654C55.7153 72.9208 56.6903 73.2461 57.7412 73.2461C59.7348 73.2461 61.455 72.0756 62.2521 70.3842C63.1663 71.4576 64.5276 72.1384 66.048 72.1384C67.9064 72.1384 69.5272 71.1213 70.3841 69.6132C71.2944 70.8111 72.7343 71.5846 74.3548 71.5846C75.9753 71.5846 77.4151 70.8111 78.3254 69.6132C79.1824 71.1213 80.8032 72.1384 82.6615 72.1384C83.9954 72.1384 85.2069 71.6144 86.1014 70.7609C86.9642 72.2469 88.5727 73.2461 90.4145 73.2461C90.8757 73.2461 91.3222 73.1835 91.746 73.0663C92.3769 75.0957 94.2694 76.5692 96.5062 76.5692C96.5163 76.5692 96.5265 76.5692 96.5366 76.5691C96.6586 77.6733 97.1413 78.6689 97.8642 79.4353C97.7017 79.9274 97.6137 80.4534 97.6137 81C97.6137 81.9079 97.8564 82.7591 98.2805 83.4923C97.8564 84.2255 97.6137 85.0767 97.6137 85.9846C97.6137 86.2136 97.6292 86.439 97.6591 86.6599C97.0012 87.2346 96.4957 87.9795 96.2112 88.8258C94.7128 89.0829 93.4429 90.0091 92.72 91.2858C92.175 91.0811 91.5848 90.9692 90.9683 90.9692C89.6854 90.9692 88.5157 91.454 87.6323 92.2504C86.7184 91.1304 85.3273 90.4154 83.7691 90.4154C83.1527 90.4154 82.5624 90.5273 82.0174 90.7319L72.8753 94.5236C73.4602 96.6262 75.3887 98.1692 77.6775 98.1692C78.2939 98.1692 78.8842 98.0573 79.4292 97.8527C80.2851 99.3644 81.908 100.385 83.7691 100.385C85.052 100.385 86.2217 99.8998 87.1051 99.1034C88.019 100.223 89.4102 100.938 90.9683 100.938C92.8294 100.938 94.4523 99.9182 95.3083 98.4065C95.8532 98.6111 96.4435 98.723 97.06 98.723C99.2569 98.723 101.122 97.3015 101.785 95.328C104.134 94.925 105.921 92.8789 105.921 90.4154C105.921 90.1863 105.905 89.9609 105.875 89.7401C106.921 88.8263 107.582 87.4826 107.582 85.9846C107.582 85.438 107.494 84.912 107.331 84.4199C108.173 83.5273 108.689 82.3239 108.689 81C108.689 79.2445 107.782 77.701 106.411 76.8129C106.453 76.5532 106.474 76.2868 106.474 76.0154C106.474 73.2624 104.243 71.0307 101.49 71.0307C101.48 71.0307 101.47 71.0308 101.46 71.0308C101.184 68.5385 99.0716 66.6 96.5062 66.6C96.045 66.6 95.5985 66.6626 95.1747 66.7798V66.7798C94.5438 64.7504 92.6513 63.2769 90.4145 63.2769C89.0807 63.2769 87.8692 63.8009 86.9747 64.6544C86.1119 63.1684 84.5034 62.1692 82.6615 62.1692C81.0411 62.1692 79.6012 62.9427 78.6909 64.1406C77.8339 62.6325 76.2131 61.6154 74.3548 61.6154C72.4964 61.6154 70.8756 62.6325 70.0186 64.1406C69.1083 62.9427 67.6685 62.1692 66.048 62.1692C64.0544 62.1692 62.3343 63.3398 61.5371 65.0311C60.623 63.9577 59.2616 63.2769 57.7412 63.2769C55.2542 63.2769 53.1927 65.0987 52.818 67.4807C52.0141 66.9253 51.0392 66.6 49.9882 66.6C47.6005 66.6 45.605 68.2792 45.1178 70.5212C44.8995 70.492 44.6767 70.4769 44.4504 70.4769C41.6978 70.4769 39.4663 72.7086 39.4663 75.4615C39.4663 75.733 39.488 75.9994 39.5298 76.2591C38.1585 77.1472 37.2512 78.6907 37.2512 80.4461C37.2512 82.0044 37.9662 83.3957 39.086 84.3098C38.2897 85.1932 37.805 86.3631 37.805 87.6461C37.805 90.2119 39.7433 92.3249 42.2353 92.6003C42.2353 92.6105 42.2353 92.6206 42.2353 92.6307C42.2353 95.3837 44.4667 97.6154 47.2193 97.6154C48.1161 97.6154 48.9576 97.3785 49.6847 96.9638C50.3405 98.9507 52.2121 100.385 54.4185 100.385C55.9767 100.385 57.3678 99.6695 58.2818 98.5496C59.1651 99.346 60.3348 99.8307 61.6177 99.8307C63.5576 99.8307 65.2386 98.7224 66.0622 97.1043C66.726 97.4315 67.4731 97.6154 68.2631 97.6154C70.3458 97.6154 72.1301 96.3378 72.8753 94.5236C72.7568 94.0975 72.6934 93.6484 72.6934 93.1846C72.6934 92.8787 72.721 92.5793 72.7737 92.2886C73.2472 93.3008 73.115 93.9399 72.8753 94.5236L73.0653 91.2918C72.4804 89.1891 70.552 87.6461 68.2631 87.6461C66.3233 87.6461 64.6422 88.7545 63.8187 90.3726C63.1549 90.0454 62.4078 89.8615 61.6177 89.8615C60.0596 89.8615 58.6684 90.5766 57.7545 91.6965C56.8711 90.9001 55.7014 90.4154 54.4185 90.4154C53.5217 90.4154 52.6802 90.6523 51.9532 91.0669C52.1155 91.5587 52.2034 92.0845 52.2034 92.6307C52.2034 94.1601 51.5147 95.5287 50.4305 96.443C49.4345 93.544 50.4487 91.9249 51.9532 91.0669L47.773 87.6765Z"
                        fill="#FCE9CB"
                    />
                    <path
                        fill-rule="evenodd"
                        clip-rule="evenodd"
                        d="M80.3288 80.0919C81.8947 79.3501 82.8526 78.3552 82.8526 77.2615C82.8526 74.9674 78.6376 73.1077 73.4382 73.1077C68.2388 73.1077 64.0239 74.9674 64.0239 77.2615C64.0239 78.4679 65.1894 79.5542 67.0508 80.313C67.0793 80.3067 67.1091 80.3005 67.1394 80.2941C67.38 80.2435 67.6576 80.1851 67.6576 80.0307C67.6576 79.266 68.5254 78.6461 69.5958 78.6461C70.6663 78.6461 71.5341 79.266 71.5341 80.0307C71.5341 80.7954 70.6663 81.4154 69.5958 81.4154C69.029 81.4154 67.6029 80.9779 67.0191 80.6348C66.8715 80.9725 66.7928 81.3269 66.7928 81.6923C66.7928 83.9864 69.892 85.8461 73.7151 85.8461C77.5382 85.8461 80.6374 83.9864 80.6374 81.6923C80.6374 81.2077 80.4992 80.7425 80.245 80.3101C79.7208 80.6589 78.1852 81.1384 77.5916 81.1384C76.5212 81.1384 75.6534 80.5185 75.6534 79.7538C75.6534 78.9891 76.5212 78.3692 77.5916 78.3692C78.6621 78.3692 79.5299 78.9891 79.5299 79.7538C79.5299 79.9081 79.8074 79.9665 80.048 80.0172C80.1603 80.0408 80.2646 80.0627 80.3288 80.0919Z"
                        fill="#8B572A"
                    />
                </g>
                <defs>
                    <filter
                        id="filter0_d"
                        x="0.0109253"
                        y="0.138428"
                        width="142.978"
                        height="111.446"
                        filterUnits="userSpaceOnUse"
                        color-interpolation-filters="sRGB"
                    >
                        <feFlood
                            flood-opacity="0"
                            result="BackgroundImageFix"
                        />
                        <feColorMatrix
                            in="SourceAlpha"
                            type="matrix"
                            values="0 0 0 0 0 0 0 0 0 0 0 0 0 0 0 0 0 0 127 0"
                        />
                        <feOffset dy="2" />
                        <feGaussianBlur stdDeviation="1" />
                        <feColorMatrix
                            type="matrix"
                            values="0 0 0 0 0 0 0 0 0 0 0 0 0 0 0 0 0 0 0.1 0"
                        />
                        <feBlend
                            mode="normal"
                            in2="BackgroundImageFix"
                            result="effect1_dropShadow"
                        />
                        <feBlend
                            mode="normal"
                            in="SourceGraphic"
                            in2="effect1_dropShadow"
                            result="shape"
                        />
                    </filter>
                    <filter
                        id="filter1_d"
                        x="54.8242"
                        y="43.7568"
                        width="11.6078"
                        height="11.7606"
                        filterUnits="userSpaceOnUse"
                        color-interpolation-filters="sRGB"
                    >
                        <feFlood
                            flood-opacity="0"
                            result="BackgroundImageFix"
                        />
                        <feColorMatrix
                            in="SourceAlpha"
                            type="matrix"
                            values="0 0 0 0 0 0 0 0 0 0 0 0 0 0 0 0 0 0 127 0"
                        />
                        <feOffset dy="2" />
                        <feGaussianBlur stdDeviation="2" />
                        <feColorMatrix
                            type="matrix"
                            values="0 0 0 0 0 0 0 0 0 0 0 0 0 0 0 0 0 0 0.5 0"
                        />
                        <feBlend
                            mode="normal"
                            in2="BackgroundImageFix"
                            result="effect1_dropShadow"
                        />
                        <feBlend
                            mode="normal"
                            in="SourceGraphic"
                            in2="effect1_dropShadow"
                            result="shape"
                        />
                    </filter>
                    <filter
                        id="filter2_d"
                        x="76.7069"
                        y="43.7568"
                        width="11.6078"
                        height="11.7606"
                        filterUnits="userSpaceOnUse"
                        color-interpolation-filters="sRGB"
                    >
                        <feFlood
                            flood-opacity="0"
                            result="BackgroundImageFix"
                        />
                        <feColorMatrix
                            in="SourceAlpha"
                            type="matrix"
                            values="0 0 0 0 0 0 0 0 0 0 0 0 0 0 0 0 0 0 127 0"
                        />
                        <feOffset dy="2" />
                        <feGaussianBlur stdDeviation="2" />
                        <feColorMatrix
                            type="matrix"
                            values="0 0 0 0 0 0 0 0 0 0 0 0 0 0 0 0 0 0 0.5 0"
                        />
                        <feBlend
                            mode="normal"
                            in2="BackgroundImageFix"
                            result="effect1_dropShadow"
                        />
                        <feBlend
                            mode="normal"
                            in="SourceGraphic"
                            in2="effect1_dropShadow"
                            result="shape"
                        />
                    </filter>
                </defs>
            </svg>